<?xml version="1.0" encoding="UTF-8" standalone="no"?>
<svg
   xmlns:dc="http://purl.org/dc/elements/1.1/"
   xmlns:cc="http://creativecommons.org/ns#"
   xmlns:rdf="http://www.w3.org/1999/02/22-rdf-syntax-ns#"
   xmlns:svg="http://www.w3.org/2000/svg"
   xmlns="http://www.w3.org/2000/svg"
   xmlns:xlink="http://www.w3.org/1999/xlink"
   xmlns:sodipodi="http://sodipodi.sourceforge.net/DTD/sodipodi-0.dtd"
   xmlns:inkscape="http://www.inkscape.org/namespaces/inkscape"
   viewBox="0 0 27.000854 26.62094"
   id="svg2"
   version="1.1"
   inkscape:version="0.48.5 r10040"
   width="100%"
   height="100%"
   sodipodi:docname="logo.svg">
  <metadata
     id="metadata41">
    <rdf:RDF>
      <cc:Work
         rdf:about="">
        <dc:format>image/svg+xml</dc:format>
        <dc:type
           rdf:resource="http://purl.org/dc/dcmitype/StillImage" />
        <dc:title></dc:title>
      </cc:Work>
    </rdf:RDF>
  </metadata>
  <sodipodi:namedview
     pagecolor="#ffffff"
     bordercolor="#666666"
     borderopacity="1"
     objecttolerance="10"
     gridtolerance="10"
     guidetolerance="10"
     inkscape:pageopacity="0"
     inkscape:pageshadow="2"
     inkscape:window-width="878"
     inkscape:window-height="746"
     id="namedview39"
     showgrid="false"
     fit-margin-top="0"
     fit-margin-left="0"
     fit-margin-right="0"
     fit-margin-bottom="0"
     inkscape:zoom="8"
     inkscape:cx="20.265435"
     inkscape:cy="9.9278487"
     inkscape:window-x="0"
     inkscape:window-y="27"
     inkscape:window-maximized="0"
     inkscape:current-layer="svg2" />
  <defs
     id="defs4">
    <linearGradient
       id="svg_5"
       x1="0"
       y1="0"
       x2="1"
       y2="1">
      <stop
         offset="0"
         stop-color="#ffffe0"
         stop-opacity="1"
         id="stop7" />
      <stop
         offset="1"
         stop-color="#edc39c"
         stop-opacity="1"
         id="stop9" />
    </linearGradient>
    <linearGradient
       id="svg_10"
       x1="0.57031"
       y1="0.78125"
       x2="0.28906"
       y2="0.41406">
      <stop
         offset="0"
         stop-color="#ff7f00"
         stop-opacity="1"
         id="stop12" />
      <stop
         offset="1"
         stop-color="#ffff00"
         id="stop14" />
    </linearGradient>
    <linearGradient
       id="svg_18"
       x1="0.37891001"
       y1="0.35938001"
       x2="1"
       y2="1">
      <stop
         offset="0"
         stop-color="#e0e0e0"
         stop-opacity="1"
         id="stop17" />
      <stop
         offset="1"
         stop-color="#666666"
         stop-opacity="1"
         id="stop19" />
    </linearGradient>
    <linearGradient
       inkscape:collect="always"
       xlink:href="#svg_10"
       id="linearGradient3034"
       x1="341.69739"
       y1="228.93947"
       x2="264.78592"
       y2="128.5266"
       gradientTransform="scale(1.016591,0.98367976)"
       gradientUnits="userSpaceOnUse" />
    <linearGradient
       inkscape:collect="always"
       xlink:href="#svg_18"
       id="linearGradient3036"
       x1="373.40903"
       y1="63.495174"
       x2="452.83755"
       y2="145.4213"
       gradientTransform="scale(1.0286698,0.97212924)"
       gradientUnits="userSpaceOnUse" />
    <linearGradient
       inkscape:collect="always"
       xlink:href="#svg_5"
       id="linearGradient3038"
       x1="157.51312"
       y1="167.4249"
       x2="308.75797"
       y2="318.66971"
       gradientTransform="scale(1.0082989,0.99176941)"
       gradientUnits="userSpaceOnUse" />
  </defs>
  <g
     id="g3018"
     transform="matrix(0.05699022,0,0,0.05699022,-0.11390293,-0.10529455)">
    <g
       id="g21">
      <title
         id="title23">Layer 1</title>
      <path
         id="svg_19"
         d="m 68.82031,270.04688 -22,-33 17,-35 34,2 25,15 7,-35 28,-16 25,12 100,102 21,23 -15,35 -36,9 20,49 -31,24 -49,-17 -1,31 -33,21 -31,-19 -13,-35 -30,21 -30,-9 -5,-35 16,-31 -32,-6 -15,-19 3,-36 47,-18 z"
         inkscape:connector-curvature="0"
         style="fill:#ffffff" />
      <path
         d="m 158.96452,155.03685 c -25.02071,0 -45.37077,20.35121 -45.37077,45.3775 0,0.72217 0.0179,1.4399 0.0471,2.15645 -0.49339,-0.53604 -0.99355,-1.06085 -1.50603,-1.58452 -8.56077,-8.55519 -19.95982,-13.28413 -32.07432,-13.28413 -12.12122,0 -23.52027,4.72334 -32.08778,13.29646 -17.69347,17.69464 -17.69347,46.4619 0,64.17445 0.51809,0.51697 1.0485,1.0126 1.59015,1.50601 -0.72891,-0.0359 -1.45782,-0.0482 -2.19234,-0.0482 -25.02071,0 -45.37189,20.35117 -45.37189,45.37747 0,25.01398 20.35119,45.36517 45.37189,45.36517 0.72891,0 1.45221,-0.0124 2.1744,-0.0483 -0.5293,0.48221 -1.05412,0.98801 -1.56547,1.49368 -17.70021,17.68906 -17.70021,46.48654 -0.0063,64.18677 8.57872,8.56747 19.96655,13.2785 32.08778,13.2785 12.1145,0 23.5012,-4.71103 32.07433,-13.2785 0.51247,-0.51694 1.01823,-1.04849 1.50603,-1.57895 -0.0291,0.71213 -0.0471,1.44669 -0.0471,2.15759 0,25.01511 20.35007,45.37747 45.37077,45.37747 25.01398,0 45.37079,-20.3624 45.37079,-45.37747 0,-0.7222 -0.0169,-1.44553 -0.0527,-2.18112 0.48105,0.52933 0.97562,1.04849 1.48697,1.56662 8.57982,8.57977 19.97775,13.2908 32.1057,13.2908 12.11003,0 23.51358,-4.71103 32.0687,-13.2785 17.68906,-17.70013 17.68906,-46.48538 0,-64.17441 -0.50577,-0.4946 -1.01141,-1.00034 -1.54306,-1.48248 0.69983,0.0359 1.42316,0.0483 2.16992,0.0483 25.01514,0 45.35284,-20.35123 45.35284,-45.36517 0,-25.02631 -20.33774,-45.37747 -45.35284,-45.37747 -0.74683,0 -1.47009,0.0124 -2.19345,0.0482 0.53152,-0.49341 1.06082,-0.98904 1.59128,-1.50601 8.55521,-8.55521 13.2785,-19.94186 13.2785,-32.07545 0,-12.12793 -4.72336,-23.52028 -13.30319,-32.0934 -8.55515,-8.56076 -19.95866,-13.2841 -32.0687,-13.2841 -12.12122,0 -23.52025,4.72334 -32.08777,13.2841 -0.51137,0.5181 -1.01822,1.04851 -1.5049,1.57895 0.0359,-0.72331 0.0527,-1.43991 0.0527,-2.16881 0,-25.02629 -20.35681,-45.3775 -45.37079,-45.3775 m 0,20.71901 c 13.61607,0 24.65851,11.03122 24.65851,24.65849 0,6.62749 -2.651,12.62137 -6.9101,17.04979 l 0,51.67419 36.53975,-36.53523 c 0.12001,-6.14418 2.48277,-12.24686 7.18146,-16.94667 4.81305,-4.81305 11.12094,-7.22409 17.44116,-7.22409 6.30228,0 12.61577,2.41104 17.43552,7.22409 9.62166,9.63287 9.62166,25.24948 0,34.87669 -4.69977,4.68634 -10.80803,7.04915 -16.95334,7.18147 l -36.5341,36.53305 51.66742,0 c 4.42841,-4.25351 10.42905,-6.90451 17.08008,-6.90451 13.59137,0 24.62933,11.03799 24.62933,24.66525 0,13.61606 -11.03796,24.66519 -24.62933,24.66519 -6.65106,0 -12.65167,-2.66333 -17.08008,-6.91681 l -51.64836,0 36.50273,36.50946 c 6.16995,0.14465 12.26587,2.50522 16.96568,7.20618 9.6216,9.61487 9.6216,25.23151 0,34.85757 -4.80856,4.81979 -11.13327,7.22974 -17.43556,7.22974 -6.32019,0 -12.63371,-2.40991 -17.44786,-7.22974 -4.68074,-4.68744 -7.04802,-10.79572 -7.17473,-16.94098 l -36.53975,-36.53415 0,51.66742 c 4.25908,4.44635 6.9101,10.43466 6.9101,17.0621 0,13.62729 -11.04243,24.66415 -24.65851,24.66415 -13.62166,0 -24.65848,-11.0369 -24.65848,-24.66415 0,-6.62744 2.64539,-12.61575 6.90335,-17.0621 l 0,-51.66742 -36.53864,36.54648 c -0.12672,6.14413 -2.48838,12.26477 -7.18147,16.94098 -4.81416,4.81873 -11.12206,7.22974 -17.42882,7.22974 -6.31461,0 -12.6225,-2.41101 -17.43555,-7.22974 -9.63284,-9.62833 -9.63284,-25.24277 0,-34.8699 4.68073,-4.67627 10.79012,-7.05026 16.94101,-7.18262 l 36.533,-36.53302 -51.66632,0 c -4.44075,4.25348 -10.42902,6.91681 -17.06211,6.91681 -13.61606,0 -24.65288,-11.04913 -24.65288,-24.66519 0,-13.62726 11.03682,-24.66525 24.65288,-24.66525 6.63309,0 12.62136,2.651 17.06211,6.90451 l 51.68537,0 -36.55208,-36.54538 c -6.14527,-0.12 -12.25354,-2.49403 -16.94775,-7.19377 -9.62611,-9.61493 -9.62611,-25.23715 0,-34.86441 4.81419,-4.81305 11.12769,-7.22406 17.44228,-7.22406 6.30676,0 12.61465,2.41101 17.42883,7.22406 4.69978,4.69307 7.06034,10.80246 7.18144,16.94777 l 36.5386,36.53299 0,-51.66074 c -4.25795,-4.42841 -6.90334,-10.42229 -6.90334,-17.04979 0,-13.62726 11.03682,-24.65848 24.65848,-24.65848"
         id="path2902"
         inkscape:connector-curvature="0"
         style="fill:#1a171a;fill-rule:nonzero" />
      <path
         id="svg_6"
         d="m 188.82031,210.04688 16,-47 155,-148 107,100 -158,156.99999 -44,12 -76,-74 z"
         style="fill:url(#linearGradient3034);stroke:#ffffff;stroke-width:0"
         inkscape:connector-curvature="0" />
      <path
         id="svg_11"
         d="m 335.57031,40.29688 c -11.5,39.75 55.5,115.25 109.25,98.75 l 21,-20.99999 -103,-101 -27.25,23.25 z"
         style="fill:url(#linearGradient3036);stroke:#ffffff;stroke-width:0"
         inkscape:connector-curvature="0" />
      <rect
         transform="matrix(0.69579497,0.71824046,-0.71824046,0.69579497,187.90096,-169.44182)"
         id="svg_13"
         height="232.66835"
         width="42.351971"
         y="20.763821"
         x="272.80405"
         style="opacity:0.4;fill:#ffffff;stroke:#ffffff;stroke-width:0" />
      <rect
         id="svg_14"
         transform="matrix(0.69579497,0.71824046,-0.71824046,0.69579497,188.06739,-165.83476)"
         height="232.66835"
         width="14"
         y="22.763821"
         x="282.80405"
         style="opacity:0.4;fill:#ffffff;stroke:#ffffff;stroke-width:0" />
      <ellipse
         transform="matrix(0.77191869,0.63572127,-0.63572127,0.77191869,135.61118,-249.22523)"
         ry="34.820259"
         rx="67.792511"
         id="svg_12"
         cy="64.380661"
         cx="415.13312"
         d="m 482.92563,64.380661 c 0,19.230698 -30.35174,34.820259 -67.79251,34.820259 -37.44077,0 -67.79251,-15.589561 -67.79251,-34.820259 0,-19.230698 30.35174,-34.820259 67.79251,-34.820259 37.44077,0 67.79251,15.589561 67.79251,34.820259 z"
         sodipodi:cx="415.13312"
         sodipodi:cy="64.380661"
         sodipodi:rx="67.792511"
         sodipodi:ry="34.820259"
         style="fill:#ea7598;stroke:#ffffff;stroke-width:0" />
      <path
         id="svg_4"
         d="m 212.07031,166.04688 c -8.5,47 36.25,103.75 99.25,96.75 l -152.5,53.25 53.25,-150 z"
         style="fill:url(#linearGradient3038);stroke:#ffffff;stroke-width:0"
         inkscape:connector-curvature="0" />
      <path
         id="svg_3"
         d="m 181.32031,242.54688 c 0.5,20.5 26.75,45 46.75,48.5 l -66.25,20 19.5,-68.5 z"
         inkscape:connector-curvature="0"
         style="fill:#27382f;stroke:#ffffff;stroke-width:0" />
    </g>
    <g
       id="g34">
      <title
         id="title36">Layer 2</title>
      <path
         id="svg_1"
         d="m 152.82031,317.04688 51,-152 157,-153 c 40,-12.00001 118,48 105,105 l -157,152.99999 -156,47 z"
         inkscape:connector-curvature="0"
         style="fill:none;stroke:#800000;stroke-width:17" />
    </g>
  </g>
</svg>
